<svg width="401" height="95" viewBox="0 0 401 95" fill="none" xmlns="http://www.w3.org/2000/svg">
<path d="M28.1054 19.5225C29.5279 19.5225 30.5212 19.8046 31.0853 20.3687C31.6739 20.9327 31.9682 21.7544 31.9682 22.8335V42.8465H38.2959C38.8845 42.8465 39.3382 42.9569 39.657 43.1776C39.9759 43.3738 40.2089 43.7417 40.356 44.2813C40.5277 44.8208 40.6136 45.6057 40.6136 46.6358C40.6136 47.6658 40.5277 48.4507 40.356 48.9902C40.2089 49.5298 39.9759 49.8977 39.657 50.0939C39.3382 50.2901 38.8845 50.3882 38.2959 50.3882H31.9682V56.4583H37.1922C37.7808 56.4583 38.2346 56.5687 38.5534 56.7894C38.8722 56.9856 39.1052 57.3535 39.2524 57.8931C39.4241 58.4326 39.5099 59.2175 39.5099 60.2476C39.5099 61.2776 39.4241 62.0625 39.2524 62.602C39.1052 63.1416 38.8722 63.5095 38.5534 63.7057C38.2346 63.9019 37.7808 64 37.1922 64H16.517C15.9284 64 15.4746 63.9019 15.1558 63.7057C14.837 63.5095 14.5917 63.1416 14.42 62.602C14.2729 62.0625 14.1993 61.2776 14.1993 60.2476C14.1993 59.2175 14.2729 58.4326 14.42 57.8931C14.5917 57.3535 14.837 56.9856 15.1558 56.7894C15.4746 56.5687 15.9284 56.4583 16.517 56.4583H22.7711V50.3882H6.95193C6.36331 50.3882 5.90958 50.2901 5.59075 50.0939C5.27191 49.8977 5.02666 49.5298 4.85498 48.9902C4.70782 48.4507 4.63424 47.6658 4.63424 46.6358C4.63424 45.0416 4.86724 43.9502 5.33323 43.3616L22.6239 22.0609C23.2861 21.2271 24.0464 20.6016 24.9048 20.1847C25.7877 19.7432 26.8546 19.5225 28.1054 19.5225ZM15.0454 42.8465H23.1021L23.6908 32.1042L15.0454 42.8465ZM66.7158 19.5225C69.9287 19.5225 72.6633 20.0866 74.9197 21.2148C77.2006 22.3185 78.9174 23.8758 80.0701 25.887C81.2474 27.8981 81.836 30.2525 81.836 32.9504C81.836 35.4275 81.2719 37.7084 80.1437 39.7931C79.04 41.8778 77.2742 44.0851 74.8461 46.415L64.8028 56.0904H75.1772V52.7059C75.1772 51.8475 75.4593 51.2466 76.0234 50.9032C76.5875 50.5599 77.6298 50.3882 79.1504 50.3882C80.7201 50.3882 81.8605 50.5721 82.5717 50.94C83.283 51.2834 83.6386 51.872 83.6386 52.7059V61.6087C83.6386 62.4426 83.4547 63.0558 83.0868 63.4482C82.7189 63.8161 82.1058 64 81.2474 64H52.7729C52.1843 64 51.7306 63.9019 51.4118 63.7057C51.0929 63.485 50.8477 63.1048 50.676 62.5652C50.5288 62.0257 50.4553 61.2409 50.4553 60.2108C50.4553 59.2297 50.5166 58.494 50.6392 58.0034C50.7618 57.5129 50.9948 57.1083 51.3382 56.7894L67.1205 41.5957C69.1562 39.6336 70.5541 38.0517 71.3144 36.85C72.0992 35.6482 72.4917 34.4097 72.4917 33.1343C72.4917 31.442 72.0011 30.0809 71.0201 29.0508C70.0391 28.0207 68.6166 27.5057 66.7526 27.5057C64.6189 27.5057 62.4974 28.0207 60.3882 29.0508V34.2012C60.3882 35.0596 60.1061 35.6605 59.542 36.0038C58.978 36.3472 57.9356 36.5189 56.415 36.5189C54.8454 36.5189 53.7049 36.3472 52.9937 36.0038C52.2824 35.6359 51.9268 35.0351 51.9268 34.2012V25.4823C51.9268 24.4767 52.4541 23.6919 53.5087 23.1278C55.6915 21.926 57.9111 21.0308 60.1675 20.4422C62.4238 19.8291 64.6066 19.5225 66.7158 19.5225ZM111.654 19.5225C115.259 19.5225 118.399 20.4913 121.072 22.4288C123.745 24.3418 125.793 27.0151 127.216 30.4487C128.638 33.8578 129.349 37.7697 129.349 42.1843C129.349 46.599 128.638 50.5231 127.216 53.9567C125.793 57.3658 123.745 60.0268 121.072 61.9398C118.399 63.8528 115.259 64.8094 111.654 64.8094C108.049 64.8094 104.909 63.8528 102.236 61.9398C99.5627 60.0268 97.5148 57.3658 96.0923 53.9567C94.6698 50.5231 93.9586 46.599 93.9586 42.1843C93.9586 37.7697 94.6698 33.8578 96.0923 30.4487C97.5148 27.0151 99.5627 24.3418 102.236 22.4288C104.909 20.4913 108.049 19.5225 111.654 19.5225ZM111.654 27.8735C109.103 27.8735 107.153 29.0876 105.805 31.5156C104.48 33.9191 103.818 37.4754 103.818 42.1843C103.818 46.8933 104.48 50.4495 105.805 52.853C107.153 55.2566 109.103 56.4583 111.654 56.4583C114.205 56.4583 116.142 55.2566 117.467 52.853C118.815 50.4495 119.49 46.8933 119.49 42.1843C119.49 37.4754 118.815 33.9191 117.467 31.5156C116.142 29.0876 114.205 27.8735 111.654 27.8735ZM158.505 15.7333C159.339 15.7333 159.928 15.9172 160.271 16.2851C160.639 16.6285 160.823 17.2171 160.823 18.051V56.4583H171.16C171.749 56.4583 172.203 56.5687 172.521 56.7894C172.84 56.9856 173.073 57.3535 173.22 57.8931C173.392 58.4326 173.478 59.2175 173.478 60.2476C173.478 61.2776 173.392 62.0625 173.22 62.602C173.073 63.1416 172.84 63.5095 172.521 63.7057C172.203 63.9019 171.749 64 171.16 64H141.582C140.994 64 140.54 63.9019 140.221 63.7057C139.902 63.5095 139.657 63.1416 139.485 62.602C139.338 62.0625 139.265 61.2776 139.265 60.2476C139.265 59.2175 139.338 58.4326 139.485 57.8931C139.657 57.3535 139.902 56.9856 140.221 56.7894C140.54 56.5687 140.994 56.4583 141.582 56.4583H151.626V23.275H143.054C142.465 23.275 142.011 23.1769 141.693 22.9806C141.374 22.7844 141.129 22.4166 140.957 21.877C140.81 21.3374 140.736 20.5526 140.736 19.5225C140.736 18.4924 140.81 17.7076 140.957 17.168C141.129 16.6285 141.374 16.2606 141.693 16.0644C142.011 15.8436 142.465 15.7333 143.054 15.7333H158.505ZM240.177 19.5225C241.33 19.5225 242.213 19.6084 242.826 19.78C243.464 19.9272 243.905 20.1602 244.15 20.479C244.396 20.7979 244.518 21.2516 244.518 21.8402V32.2146H258.167C259.025 32.2146 259.626 32.4966 259.97 33.0607C260.313 33.6248 260.485 34.6672 260.485 36.1878C260.485 37.7084 260.313 38.7507 259.97 39.3148C259.626 39.8544 259.025 40.1242 258.167 40.1242H244.518V50.3514C244.518 54.4227 246.1 56.4583 249.264 56.4583C250.392 56.4583 251.704 56.2131 253.2 55.7226C254.721 55.2075 256.487 54.4963 258.498 53.5888C259.038 53.3681 259.467 53.2577 259.786 53.2577C260.301 53.2577 260.779 53.4784 261.22 53.9199C261.662 54.3368 262.079 55.0358 262.471 56.0169C262.913 57.1205 263.133 58.0157 263.133 58.7024C263.133 59.242 262.999 59.6957 262.729 60.0636C262.483 60.407 262.103 60.7135 261.588 60.9833C256.536 63.534 252.158 64.8094 248.455 64.8094C244.187 64.8094 240.925 63.6199 238.669 61.2409C236.437 58.8619 235.321 55.3915 235.321 50.8297V40.1242H228.221C227.363 40.1242 226.762 39.8544 226.418 39.3148C226.075 38.7507 225.903 37.7084 225.903 36.1878C225.903 34.6672 226.075 33.6248 226.418 33.0607C226.762 32.4966 227.363 32.2146 228.221 32.2146H235.321V21.8402C235.321 21.0063 235.689 20.4177 236.425 20.0743C237.185 19.7065 238.436 19.5225 240.177 19.5225ZM292.142 30.0073C292.976 30.0073 293.565 30.1912 293.908 30.5591C294.276 30.9025 294.46 31.4911 294.46 32.325V56.4583H304.797C305.386 56.4583 305.84 56.5687 306.158 56.7894C306.477 56.9856 306.71 57.3535 306.857 57.8931C307.029 58.4326 307.115 59.2175 307.115 60.2476C307.115 61.2776 307.029 62.0625 306.857 62.602C306.71 63.1416 306.477 63.5095 306.158 63.7057C305.84 63.9019 305.386 64 304.797 64H275.219C274.631 64 274.177 63.9019 273.858 63.7057C273.539 63.5095 273.294 63.1416 273.122 62.602C272.975 62.0625 272.902 61.2776 272.902 60.2476C272.902 59.2175 272.975 58.4326 273.122 57.8931C273.294 57.3535 273.539 56.9856 273.858 56.7894C274.177 56.5687 274.631 56.4583 275.219 56.4583H285.263V37.549H277.427C276.838 37.549 276.384 37.4509 276.065 37.2546C275.747 37.0584 275.501 36.6906 275.33 36.151C275.182 35.6114 275.109 34.8266 275.109 33.7965C275.109 32.7664 275.182 31.9816 275.33 31.442C275.501 30.9025 275.747 30.5346 276.065 30.3384C276.384 30.1176 276.838 30.0073 277.427 30.0073H292.142ZM289.751 13.8571C291.492 13.8571 292.706 14.041 293.393 14.4089C294.104 14.7523 294.46 15.3409 294.46 16.1747V22.2081C294.46 23.042 294.129 23.6428 293.466 24.0107C292.829 24.3541 291.652 24.5258 289.935 24.5258C288.218 24.5258 287.004 24.3541 286.293 24.0107C285.606 23.6428 285.263 23.042 285.263 22.2081V16.1747C285.263 15.3163 285.581 14.7155 286.219 14.3721C286.857 14.0287 288.034 13.8571 289.751 13.8571ZM346.314 29.1979C347.835 29.1979 348.877 29.3696 349.441 29.713C350.005 30.0563 350.287 30.6572 350.287 31.5156V43.3248C350.287 44.1587 349.907 44.7595 349.147 45.1274C348.411 45.4708 347.172 45.6425 345.431 45.6425C344.278 45.6425 343.383 45.5689 342.746 45.4217C342.132 45.25 341.703 45.0048 341.458 44.686C341.213 44.3671 341.09 43.9134 341.09 43.3248C341.09 42.2947 340.833 41.3382 340.317 40.4553C339.827 39.5723 339.079 38.8733 338.073 38.3583C337.092 37.8187 335.903 37.549 334.505 37.549C332.739 37.549 331.194 37.9414 329.87 38.7262C328.545 39.4865 327.515 40.5902 326.779 42.0372C326.068 43.4597 325.712 45.1152 325.712 47.0036C325.712 48.8921 326.068 50.5599 326.779 52.0069C327.515 53.4294 328.545 54.5331 329.87 55.3179C331.194 56.0782 332.739 56.4583 334.505 56.4583C336.393 56.4583 338.319 56.1518 340.281 55.5386C342.267 54.9255 344.193 54.0793 346.057 53.0002C346.498 52.7549 346.903 52.6323 347.271 52.6323C348.374 52.6323 349.343 53.6011 350.177 55.5386C350.618 56.5932 350.839 57.4884 350.839 58.2242C350.839 59.3278 350.312 60.174 349.257 60.7626C346.976 62.0379 344.573 63.0312 342.047 63.7425C339.545 64.4537 337.031 64.8094 334.505 64.8094C330.777 64.8094 327.503 64.0491 324.682 62.5285C321.862 61.0079 319.679 58.8986 318.134 56.2008C316.613 53.503 315.853 50.4372 315.853 47.0036C315.853 43.57 316.626 40.5043 318.171 37.8065C319.716 35.0841 321.813 32.9749 324.462 31.4788C327.135 29.9582 330.115 29.1979 333.401 29.1979C337.374 29.1979 340.183 30.6327 341.826 33.5022V31.5156C341.826 30.6817 342.181 30.0931 342.893 29.7498C343.604 29.3819 344.744 29.1979 346.314 29.1979ZM388.934 29.1979C390.504 29.1979 391.62 29.3819 392.282 29.7498C392.944 30.0931 393.275 30.6817 393.275 31.5156V39.278C393.275 40.1119 393.006 40.7128 392.466 41.0807C391.951 41.424 391.093 41.5957 389.891 41.5957C388.591 41.5957 387.696 41.3382 387.205 40.8231C385.758 39.278 384.103 38.1866 382.239 37.549C380.375 36.8868 378.217 36.5557 375.764 36.5557C374.317 36.5557 373.177 36.8132 372.343 37.3282C371.533 37.8433 371.129 38.53 371.129 39.3884C371.129 40.4185 372.036 41.1542 373.851 41.5957C374.808 41.841 376.439 42.074 378.744 42.2947C381.025 42.5645 382.913 42.8343 384.409 43.104C385.93 43.3738 387.365 43.7785 388.714 44.3181C390.676 45.1274 392.209 46.2556 393.312 47.7026C394.416 49.1496 394.968 51.0627 394.968 53.4417C394.968 55.7716 394.391 57.795 393.239 59.5118C392.111 61.2041 390.443 62.5162 388.235 63.4482C386.053 64.3556 383.416 64.8094 380.326 64.8094C376.917 64.8094 373.753 63.9387 370.834 62.1974V62.4917C370.834 63.3255 370.479 63.9142 369.768 64.2575C369.056 64.6254 367.916 64.8094 366.346 64.8094C364.777 64.8094 363.661 64.6254 362.998 64.2575C362.336 63.9142 362.005 63.3255 362.005 62.4917V54.2878C362.005 53.4784 362.287 52.8898 362.851 52.5219C363.44 52.1541 364.335 51.9701 365.537 51.9701C367.033 51.9701 368.051 52.3135 368.59 53.0002C369.817 54.5453 371.386 55.6735 373.299 56.3847C375.212 57.096 377.309 57.4516 379.59 57.4516C383.514 57.4516 385.476 56.4338 385.476 54.3982C385.476 53.785 385.194 53.2945 384.63 52.9266C384.091 52.5587 383.281 52.2522 382.202 52.0069C381.589 51.8843 380.166 51.6635 377.935 51.3447C375.458 51.0504 373.324 50.7193 371.533 50.3514C369.768 49.959 368.161 49.3581 366.714 48.5488C363.33 46.6848 361.637 43.7417 361.637 39.7195C361.637 37.5857 362.214 35.7218 363.366 34.1276C364.519 32.5334 366.101 31.3194 368.112 30.4855C370.148 29.6271 372.429 29.1979 374.955 29.1979C378.658 29.1979 381.945 30.0931 384.814 31.8835V31.5156C384.814 30.6817 385.108 30.0931 385.697 29.7498C386.31 29.3819 387.389 29.1979 388.934 29.1979Z" fill="white"/>
<path d="M219.299 20.3319C219.888 20.3319 220.341 20.4422 220.66 20.663C220.979 20.8592 221.212 21.2271 221.359 21.7666C221.531 22.3062 221.617 23.091 221.617 24.1211C221.617 25.1512 221.531 25.936 221.359 26.4756C221.212 27.0151 220.979 27.383 220.66 27.5792C220.341 27.7754 219.888 27.8735 219.299 27.8735H217.68L205.099 47.114V56.4583H212.309C212.898 56.4583 213.351 56.5687 213.67 56.7894C213.989 56.9856 214.222 57.3535 214.369 57.8931C214.541 58.4326 214.627 59.2175 214.627 60.2476C214.627 61.2776 214.541 62.0625 214.369 62.602C214.222 63.1416 213.989 63.5095 213.67 63.7057C213.351 63.9019 212.898 64 212.309 64H188.691C188.102 64 187.648 63.9019 187.33 63.7057C187.011 63.5095 186.766 63.1416 186.594 62.602C186.447 62.0625 186.373 61.2776 186.373 60.2476C186.373 59.2175 186.447 58.4326 186.594 57.8931C186.766 57.3535 187.011 56.9856 187.33 56.7894C187.648 56.5687 188.102 56.4583 188.691 56.4583H195.901V47.0772L183.393 27.8735H181.701C181.112 27.8735 180.659 27.7754 180.34 27.5792C180.021 27.383 179.776 27.0151 179.604 26.4756C179.457 25.936 179.383 25.1512 179.383 24.1211C179.383 23.091 179.457 22.3062 179.604 21.7666C179.776 21.2271 180.021 20.8592 180.34 20.663C180.659 20.4422 181.112 20.3319 181.701 20.3319H196.196C196.784 20.3319 197.238 20.4422 197.557 20.663C197.876 20.8592 198.109 21.2271 198.256 21.7666C198.428 22.3062 198.513 23.091 198.513 24.1211C198.513 25.1512 198.428 25.936 198.256 26.4756C198.109 27.0151 197.876 27.383 197.557 27.5792C197.238 27.7754 196.784 27.8735 196.196 27.8735H193.731L200.574 38.6158L207.49 27.8735H205.54C204.951 27.8735 204.498 27.7754 204.179 27.5792C203.86 27.383 203.615 27.0151 203.443 26.4756C203.296 25.936 203.222 25.1512 203.222 24.1211C203.222 23.091 203.296 22.3062 203.443 21.7666C203.615 21.2271 203.86 20.8592 204.179 20.663C204.498 20.4422 204.951 20.3319 205.54 20.3319H219.299Z" fill="#13D074"/>
</svg>
